<svg width="22" height="20" viewBox="0 0 22 20" fill="none" xmlns="http://www.w3.org/2000/svg">
<path d="M1.25 0.25C1.05109 0.25 0.860322 0.329018 0.71967 0.46967C0.579018 0.610322 0.5 0.801088 0.5 1C0.5 1.19891 0.579018 1.38968 0.71967 1.53033C0.860322 1.67098 1.05109 1.75 1.25 1.75H2.636C2.806 1.75 2.954 1.864 2.998 2.028L5.556 11.62C4.75257 11.8293 4.04126 12.2992 3.53349 12.9561C3.02572 13.613 2.75017 14.4197 2.75 15.25C2.75 15.664 3.086 16 3.5 16H19.25C19.4489 16 19.6397 15.921 19.7803 15.7803C19.921 15.6397 20 15.4489 20 15.25C20 15.0511 19.921 14.8603 19.7803 14.7197C19.6397 14.579 19.4489 14.5 19.25 14.5H4.378C4.53313 14.0612 4.82052 13.6813 5.20056 13.4127C5.5806 13.144 6.0346 12.9999 6.5 13H17.718C17.8585 13 17.9962 12.9605 18.1153 12.8861C18.2345 12.8117 18.3304 12.7053 18.392 12.579C19.5337 10.2361 20.5224 7.82171 21.352 5.351C21.3848 5.25326 21.397 5.14981 21.3881 5.04712C21.3791 4.94442 21.349 4.84468 21.2997 4.75413C21.2505 4.66357 21.1831 4.58415 21.1017 4.52081C21.0204 4.45747 20.9269 4.41158 20.827 4.386C15.5528 3.04115 10.122 2.40985 4.68 2.509L4.448 1.642C4.34156 1.24274 4.10621 0.889824 3.77853 0.638098C3.45086 0.386373 3.0492 0.249939 2.636 0.25H1.25ZM2.75 18.25C2.75 17.8522 2.90804 17.4706 3.18934 17.1893C3.47064 16.908 3.85218 16.75 4.25 16.75C4.64782 16.75 5.02936 16.908 5.31066 17.1893C5.59196 17.4706 5.75 17.8522 5.75 18.25C5.75 18.6478 5.59196 19.0294 5.31066 19.3107C5.02936 19.592 4.64782 19.75 4.25 19.75C3.85218 19.75 3.47064 19.592 3.18934 19.3107C2.90804 19.0294 2.75 18.6478 2.75 18.25ZM15.5 18.25C15.5 17.8522 15.658 17.4706 15.9393 17.1893C16.2206 16.908 16.6022 16.75 17 16.75C17.3978 16.75 17.7794 16.908 18.0607 17.1893C18.342 17.4706 18.5 17.8522 18.5 18.25C18.5 18.6478 18.342 19.0294 18.0607 19.3107C17.7794 19.592 17.3978 19.75 17 19.75C16.6022 19.75 16.2206 19.592 15.9393 19.3107C15.658 19.0294 15.5 18.6478 15.5 18.25Z" fill="white"/>
</svg>
