<svg width="48" height="35" viewBox="0 0 48 35" fill="none" xmlns="http://www.w3.org/2000/svg">
<path d="M40.9231 2H7.07692C4.27302 2 2 3.89261 2 6.22727V28.7727C2 31.1074 4.27302 33 7.07692 33H40.9231C43.727 33 46 31.1074 46 28.7727V6.22727C46 3.89261 43.727 2 40.9231 2Z" stroke="#28705F" stroke-width="3" stroke-linejoin="round"/>
<path d="M33 14C34.6569 14 36 12.433 36 10.5C36 8.567 34.6569 7 33 7C31.3431 7 30 8.567 30 10.5C30 12.433 31.3431 14 33 14Z" stroke="#28705F" stroke-width="3" stroke-miterlimit="10"/>
<path d="M29.0769 24.1675L19.4879 15.8602C18.8777 15.3307 18.0576 15.0235 17.1951 15.0013C16.3327 14.9791 15.493 15.2437 14.8478 15.7409L2 25.6557M20.6154 33L33.661 21.6769C34.2576 21.158 35.0561 20.8515 35.8998 20.8175C36.7435 20.7836 37.5713 21.0246 38.2207 21.4933L46 27.1245" stroke="#28705F" stroke-width="3" stroke-linecap="round" stroke-linejoin="round"/>
</svg>
