<svg width="65" height="46" viewBox="0 0 65 46" fill="none" xmlns="http://www.w3.org/2000/svg">
<path d="M15.6837 33.1335C12.1541 33.1335 9.28369 36.0039 9.28369 39.5335C9.28369 43.0632 12.1541 45.9335 15.6837 45.9335C19.2133 45.9335 22.0837 43.0632 22.0837 39.5335C22.0837 36.0039 19.2132 33.1335 15.6837 33.1335ZM15.6837 43.8002C13.3306 43.8002 11.4171 41.8865 11.4171 39.5335C11.4171 37.1804 13.3307 35.2669 15.6837 35.2669C18.0367 35.2669 19.9503 37.1805 19.9503 39.5335C19.9503 41.8865 18.0367 43.8002 15.6837 43.8002Z" fill="#1E9C86"/>
<path d="M51.9493 33.1335C48.4196 33.1335 45.5493 36.0039 45.5493 39.5335C45.5493 43.0632 48.4196 45.9335 51.9493 45.9335C55.4789 45.9335 58.3493 43.0632 58.3493 39.5335C58.3493 36.0039 55.4789 33.1335 51.9493 33.1335ZM51.9493 43.8002C49.5961 43.8002 47.6826 41.8865 47.6826 39.5335C47.6826 37.1804 49.5963 35.2669 51.9493 35.2669C54.3024 35.2669 56.2159 37.1805 56.2159 39.5335C56.2159 41.8865 54.3024 43.8002 51.9493 43.8002Z" fill="#1E9C86"/>
<path d="M64.5807 27.2231L54.9807 12.2896C54.7844 11.9845 54.4463 11.8 54.0836 11.8H42.3503C41.7604 11.8 41.2837 12.2778 41.2837 12.8666V39.5333C41.2837 40.1231 41.7604 40.5998 42.3503 40.5998H46.6169V38.4666H43.4169V13.9333H53.5012L62.6169 28.1136V38.4667H57.2836V40.6H63.6836C64.2734 40.6 64.7502 40.1232 64.7502 39.5333V27.8001C64.7503 27.5963 64.6917 27.3947 64.5807 27.2231Z" fill="#1E9C86"/>
<path d="M47.6825 25.6666V18.2001H56.2159V16.0667H46.6159C46.026 16.0667 45.5493 16.5446 45.5493 17.1333V26.7332C45.5493 27.3231 46.026 27.7999 46.6159 27.7999H62.6159V25.6665L47.6825 25.6666Z" fill="#1E9C86"/>
<path d="M42.35 4.33325H1.81662C1.22787 4.33325 0.75 4.81105 0.75 5.39985V39.5333C0.75 40.1231 1.22787 40.5998 1.81662 40.5998H10.35V38.4664H2.88337V6.46645H41.2834V38.4664H21.0166V40.5998H42.35C42.9399 40.5998 43.4166 40.1231 43.4166 39.5333V5.39985C43.4166 4.81105 42.9399 4.33325 42.35 4.33325Z" fill="#1E9C86"/>
<path d="M8.21641 34.1997H1.81641V36.3331H8.21641V34.1997Z" fill="#1E9C86"/>
<path d="M41.2832 34.1997H23.1499V36.3331H41.2832V34.1997Z" fill="#1E9C86"/>
<path d="M63.6831 34.1997H59.4165V36.3331H63.6831V34.1997Z" fill="#1E9C86"/>
<path d="M42.3505 8.59985H5.01709V10.7333H42.3505V8.59985Z" fill="#1E9C86"/>
<path d="M16.7506 38.4668H14.6172V40.6002H16.7506V38.4668Z" fill="#1E9C86"/>
<path d="M53.0162 38.4668H50.8828V40.6002H53.0162V38.4668Z" fill="#1E9C86"/>
<path d="M19.9505 0.0666504H5.01709V2.20007H19.9505V0.0666504Z" fill="#1E9C86"/>
<path d="M2.88337 0.0666504H0.75V2.20007H2.88337V0.0666504Z" fill="#1E9C86"/>
</svg>
