<svg width="34" height="29" viewBox="0 0 34 29" fill="none" xmlns="http://www.w3.org/2000/svg">
<path fill-rule="evenodd" clip-rule="evenodd" d="M4.15267 0.000211104H19.3376C21.6821 0.000211104 23.4903 1.87654 23.4903 4.24909C27.0668 4.24909 27.6291 3.92517 29.3161 6.5665L33.2802 12.7692C33.827 13.6256 34.0225 14.5749 33.9948 15.5656L33.8581 20.3435C33.8045 22.2267 32.5345 23.8325 30.7419 24.2926C29.304 29.0032 23.2809 30.64 19.6819 27.0562L19.6785 27.0597C18.9448 26.3291 18.3808 25.428 18.0537 24.4201H15.9688C14.453 29.0463 8.50779 30.597 4.95033 27.0545L4.94687 27.0579C4.19074 26.305 3.61628 25.3711 3.29272 24.3287C2.49679 24.1582 1.78219 23.7584 1.22158 23.2019L1.21812 23.2054C0.467176 22.4576 0 21.4221 0 20.2832V4.13193C0 1.86448 1.87562 -0.00323486 4.15267 -0.00323486V0.000211104ZM4.15267 2.14705H19.3376C20.4363 2.14705 21.3344 3.04128 21.3344 4.13537V6.39593H25.5805C26.6792 6.39593 26.9439 6.83701 27.5322 7.75881L31.4686 13.9185C31.7627 14.3768 31.8614 14.9643 31.8458 15.5071L31.7091 20.2849C31.678 21.3773 30.8094 22.2732 29.7124 22.2732H28.868C28.8974 24.8353 26.8834 26.8512 24.3779 26.8512C21.8725 26.8512 19.8567 24.8353 19.8878 22.2732H14.1364C14.1658 24.8353 12.1518 26.8512 9.64631 26.8512C7.14086 26.8512 5.12509 24.8353 5.15623 22.2732H4.15267C3.05394 22.2732 2.15593 21.379 2.15593 20.2849V4.13365C2.15593 3.03955 3.05394 2.14533 4.15267 2.14533V2.14705ZM21.2236 8.37047L24.8174 8.37908C25.1565 8.37908 25.4905 8.58584 25.6704 8.87013L28.3662 13.1483C28.6725 13.6359 28.4458 14.6025 27.6481 14.6008L21.2253 14.5922C20.8862 14.5922 20.6076 14.3165 20.6076 13.9771V8.98385C20.6076 8.64614 20.8845 8.36874 21.2253 8.36874L21.2236 8.37047ZM9.64631 19.9196C12.8992 19.9196 12.8992 24.8405 9.64631 24.8405C6.39338 24.8405 6.39338 19.9196 9.64631 19.9196ZM24.3796 19.9196C27.6326 19.9196 27.6326 24.8405 24.3796 24.8405C21.1267 24.8405 21.1267 19.9196 24.3796 19.9196ZM24.1685 10.5173L22.7618 10.5139V12.4574L25.3936 12.4608L24.1685 10.5173Z" fill="white"/>
</svg>
