<svg width="26" height="26" viewBox="0 0 26 26" fill="none" xmlns="http://www.w3.org/2000/svg">
<path d="M11.1253 0.916748C5.50469 0.916748 0.916992 5.50445 0.916992 11.1251C0.916992 16.7457 5.50469 21.3334 11.1253 21.3334C13.6745 21.3334 16.0035 20.3826 17.7961 18.8269L18.417 19.4478V21.3334L23.0837 26.0001L25.417 22.5001L21.3337 18.4167H19.4481L18.8271 17.7958C20.3829 16.0032 21.3337 13.6742 21.3337 11.1251C21.3337 5.50445 16.746 0.916748 11.1253 0.916748ZM11.1253 3.83341C15.1697 3.83341 18.417 7.08073 18.417 11.1251C18.417 15.1694 15.1697 18.4167 11.1253 18.4167C7.08098 18.4167 3.83366 15.1694 3.83366 11.1251C3.83366 7.08073 7.08098 3.83341 11.1253 3.83341Z" fill="white"/>
</svg>
