<svg width="101" height="22" viewBox="0 0 101 22" fill="none" xmlns="http://www.w3.org/2000/svg">
<path fill-rule="evenodd" clip-rule="evenodd" d="M29.9652 10.218C30.9004 10.218 31.6656 10.9873 31.6656 11.9277V17.6057C31.6656 18.546 30.9005 19.3155 29.9653 19.3155C29.03 19.3155 28.2649 18.5462 28.2649 17.6057V11.9277C28.2649 10.9874 29.03 10.218 29.9652 10.218ZM87.4393 6.64981C82.5188 6.52127 78.8494 4.33869 75.902 0.970623C74.927 3.86266 75.1751 6.42984 77.8649 8.35031C76.9892 8.41498 76.1134 8.17441 75.2374 7.59112C75.1365 10.1242 76.8685 11.8809 79.8283 13.1182C78.9221 13.2992 78.0163 13.2508 77.11 13.0272C78.2013 15.3 79.9453 16.6253 82.486 16.7929C80.1409 18.7581 77.3712 19.4434 74.3012 19.2224C86.0156 25.6567 98.7194 17.2929 98.1008 5.22233C99.192 4.50967 100.151 3.59646 101 2.51948C99.9148 3.0998 98.8035 3.36613 97.6779 3.46084C98.9559 2.51948 99.8327 1.45688 100.305 0.272164C99.3089 1.03671 98.1207 1.51205 96.802 1.79064C92.58 -2.42373 86.4103 1.45705 87.4392 6.64981H87.4393ZM56.3531 9.51505C58.5344 9.51505 60.3751 10.6364 61.1715 12.36C61.9439 14.0317 61.3205 15.1869 59.605 15.1869H54.2309C54.6077 15.9833 55.4525 16.5382 56.4345 16.5382C57.394 16.5382 58.1361 16.2811 58.6522 15.9649C60.2992 14.956 61.8682 16.6132 60.0741 18.0955C59.216 18.8045 57.9825 19.2206 56.3531 19.2206C53.4121 19.2206 51.028 17.0479 51.028 14.3678C51.028 11.6877 52.8216 9.51505 56.3531 9.51505ZM58.5278 13.1188C58.1113 12.4336 57.3299 11.9722 56.4345 11.9722C55.3593 11.9722 54.6396 12.4335 54.283 13.1188H58.5278ZM63.668 19.0831H63.6681C64.5558 19.0831 65.2822 18.3137 65.2822 17.3733V14.1164C65.2822 13.3654 66.0673 12.6365 66.7889 12.6365H69.0301C69.9652 12.6365 70.7304 11.927 70.7304 11.0599C70.7304 10.1927 69.9653 9.48319 69.0301 9.48319H66.8812C64.1144 9.48319 62.0539 11.6071 62.0539 14.07V17.3733C62.0539 18.3135 62.7803 19.0831 63.668 19.0831H63.668ZM10.3855 10.7317V10.7318C10.3855 11.6721 9.62037 12.4415 8.68516 12.4415H3.40073V14.3043C3.40073 15.1335 4.15619 15.9988 5.03047 15.9988H8.68512C9.62032 15.9988 10.3855 16.7687 10.3855 17.7085V17.7086C10.3855 18.6485 9.61989 19.4183 8.68512 19.4183H4.98432C2.40766 19.4183 0 17.3046 0 14.3043V7.28633C0 6.34597 0.765118 5.57659 1.70036 5.57659H1.70041C2.63561 5.57659 3.40077 6.34606 3.40077 7.28633V9.02201H8.68521C9.62041 9.02201 10.3856 9.79135 10.3856 10.7318L10.3855 10.7317ZM50.4566 12.0783C50.4566 13.0178 49.6909 13.7881 48.7562 13.7881H45.5037V13.7936C45.5037 14.6214 46.0744 15.8595 46.9487 15.8595H48.8024C49.7376 15.8595 50.5027 16.6297 50.5027 17.5692C50.5027 18.5089 49.7367 19.279 48.8024 19.279H46.9025C44.0422 19.279 42.1029 16.4224 42.1029 13.4221V7.28633C42.1029 6.34597 42.868 5.57659 43.8033 5.57659H43.8033C44.7385 5.57659 45.5037 6.34636 45.5037 7.28633V10.3686H48.7562C49.6914 10.3686 50.4566 11.1388 50.4566 12.0783V12.0783ZM41.1961 12.0783C41.1961 13.0178 40.4304 13.7881 39.4957 13.7881H36.2432V13.7936C36.2432 14.6214 36.8139 15.8595 37.6882 15.8595H39.5419C40.4771 15.8595 41.2422 16.6297 41.2422 17.5692C41.2422 18.5089 40.4762 19.279 39.5419 19.279H37.642C34.7817 19.279 32.8424 16.4224 32.8424 13.4221V7.28633C32.8424 6.34597 33.6076 5.57659 34.5428 5.57659H34.5428C35.478 5.57659 36.2432 6.34636 36.2432 7.28633V10.3686H39.4957C40.4309 10.3686 41.1961 11.1388 41.1961 12.0783V12.0783ZM19.1932 9.61441C20.1197 9.61441 20.8328 10.41 20.8328 11.3242L20.833 14.7668C20.833 15.4765 21.7148 16.1522 22.4061 16.1522C23.2182 16.1522 23.9786 15.5633 23.9786 14.7668V11.3242C23.9786 10.3838 24.7041 9.61441 25.6182 9.61441C26.5324 9.61441 27.2578 10.41 27.2578 11.3242V14.7668C27.2578 17.3631 24.7686 19.3772 22.4061 19.4181C20.4919 19.4513 20.0424 18.9504 19.1847 18.1803C18.3179 18.9504 17.1779 19.4181 15.9287 19.4181C13.4014 19.4181 11.0168 17.1878 11.0168 14.7668V11.3242C11.0168 10.3838 11.7422 9.61441 12.6564 9.61441C13.5705 9.61441 14.296 10.41 14.296 11.3242V14.7665C14.296 15.1427 14.5831 16.1522 15.9287 16.1522C16.7496 16.1522 17.5536 15.5636 17.5536 14.7668V11.3242C17.5536 10.3838 18.2914 9.61441 19.1932 9.61441ZM29.9652 5.47425C30.9043 5.47425 31.6655 6.2397 31.6655 7.18398C31.6655 8.12827 30.9043 8.89372 29.9652 8.89372C29.0261 8.89372 28.2648 8.12827 28.2648 7.18398C28.2648 6.2397 29.0261 5.47425 29.9652 5.47425Z" fill="#50CEF1"/>
</svg>
