<svg width="125" height="25" viewBox="0 0 125 25" fill="none" xmlns="http://www.w3.org/2000/svg">
<path d="M105.375 3.875V21.125H113.875C116.25 21.125 117.625 20.75 118.625 19.875C119.875 18.75 120.5 16.75 120.5 12.5C120.5 8.25 119.875 6.25 118.625 5.125C117.625 4.25 116.25 3.875 113.875 3.875H105.375ZM117 12.5C117 16.25 116.75 17.125 116 17.625C115.5 18 114.875 18.125 113.625 18.125H108.875V6.75H113.625C114.875 6.75 115.5 6.75 116 7.25C116.75 7.875 117 8.75 117 12.5ZM124.875 24.938H99.937V0H124.875V24.938ZM79.563 6.75V3.875H94.313V9.375H91.187V6.75H85.187V10.875H89.937V13.625H85.187V18.25H91.313V15.25H94.437V21.125H79.564V18.25H81.938V6.75H79.563ZM66.188 16.625C66.188 18.5 66.312 19.875 66.562 21H69.938C69.812 20.125 69.688 18.5 69.688 16.375C69.562 13.875 68.812 13.5 67.062 13.125C69.062 12.75 69.938 11.875 69.938 8.75C69.938 6.25 69.562 5.25 68.812 4.625C68.312 4.125 67.438 3.875 66.062 3.875H55.562V21.125H59.062V14.375H63.938C64.938 14.375 65.312 14.5 65.688 14.75C66.064 15 66.188 15.375 66.188 16.625ZM59.062 11.625V6.875H64.688C65.438 6.875 65.688 7 65.812 7.125C66.062 7.375 66.312 7.75 66.312 9.25C66.312 10.75 66.062 11.25 65.812 11.5C65.688 11.625 65.438 11.75 64.688 11.75L59.062 11.625ZM74.938 24.938H49.938V0H74.875V24.938H74.938ZM43.438 18.25V21.125H31.562V18.25H35.812V6.75H31.562V3.875H43.437V6.75H39.187V18.25H43.438ZM23.375 3.875H20.125L17.75 17.5L15 4.875C14.875 4 14.5 3.875 13.75 3.875H12C11.25 3.875 10.875 4.125 10.75 4.875L8 17.5L5.625 3.875H2.125L5.5 20.25C5.625 21 5.875 21.125 6.75 21.125H9.125C9.875 21.125 10.125 21 10.375 20.25L13 8.375L15.625 20.25C15.75 21 16 21.125 16.875 21.125H19.125C19.875 21.125 20.25 21 20.375 20.25L23.375 3.875ZM25.125 24.938H0.125V0H25.063V24.938H25.125Z" fill="white"/>
</svg>
